<svg width="622" height="230" viewBox="0 0 622 230" fill="none" xmlns="http://www.w3.org/2000/svg">
<path d="M247.555 0.213867H234.709H210.926V25.8304H234.709V226.326H260.401V0.213867H247.555Z" fill="#03FF00"/>
<path d="M443.41 147.593C443.41 93.5137 413.279 61.2578 366.972 61.2578C320.662 61.2578 290.217 91.9344 290.217 146.009C290.217 200.084 320.344 229.498 366.972 229.498C403.758 229.498 431.356 208.308 438.971 178.898H410.424C404.076 192.499 391.077 204.515 366.972 204.515C335.888 204.515 320.034 184.909 316.858 156.763H443.41V147.593ZM317.176 132.414C320.979 105.218 337.476 85.9238 366.972 85.9238C396.465 85.9238 412.009 104.901 415.816 132.414H317.176Z" fill="#03FF00"/>
<path d="M544.574 61.2578C497.946 61.2578 467.818 91.9344 467.818 146.009C467.818 200.084 497.946 229.498 544.574 229.498C591.198 229.498 621.012 201.035 621.012 146.009C621.012 90.9834 590.881 61.2578 544.574 61.2578ZM544.574 205.149C511.27 205.149 493.189 179.216 493.189 145.697C493.189 112.179 511.27 85.2951 544.574 85.2951C577.877 85.2951 595.637 111.545 595.637 145.697C595.637 179.849 578.195 205.149 544.574 205.149Z" fill="#03FF00"/>
<path d="M133.539 0.213867H108.541H81.2028L35.7793 132.406H63.4412L100.236 24.563H113.558L150.347 132.406H99.6317H63.4412L54.8809 156.755H107.879H158.594L182.379 226.326H210.925L133.539 0.213867Z" fill="#03FF00"/>
<path d="M3.49805 226.333H31.0911L54.8804 156.762H27.4094L3.49805 226.333Z" fill="#03FF00"/>
<path d="M8.36933 132.402L0 156.752H27.4182L35.7875 132.402H8.36933Z" fill="#03FF00"/>
</svg>
